<?xml version="1.0" standalone="no"?>
<!DOCTYPE svg PUBLIC "-//W3C//DTD SVG 20010904//EN"
 "http://www.w3.org/TR/2001/REC-SVG-20010904/DTD/svg10.dtd">
<svg version="1.0" xmlns="http://www.w3.org/2000/svg"
 width="315.000000pt" height="315.000000pt" viewBox="0 0 315.000000 315.000000"
 preserveAspectRatio="xMidYMid meet">
<metadata>
Created by potrace 1.11, written by Peter Selinger 2001-2013
</metadata>
<g transform="translate(0.000000,315.000000) scale(0.100000,-0.100000)"
fill="#000000" stroke="none">
<path d="M1434 2970 c-186 -20 -331 -63 -498 -148 -303 -154 -556 -433 -671
-739 -66 -176 -101 -384 -92 -561 32 -672 505 -1208 1172 -1328 93 -16 344
-19 431 -4 307 53 553 175 768 380 275 262 426 619 426 1011 0 363 -136 699
-390 962 -241 250 -524 389 -872 426 -107 12 -167 12 -274 1z m284 -226 c78
-8 202 -40 292 -75 83 -34 237 -122 290 -168 l35 -30 -765 0 -765 -1 25 21
c111 91 301 187 442 224 149 40 266 47 446 29z m-657 -760 c189 -217 345 -399
347 -404 2 -6 -574 -680 -683 -799 -11 -11 -22 -2 -66 52 -315 381 -352 939
-91 1360 47 76 131 186 143 187 4 0 161 -178 350 -396z m1426 333 c271 -333
337 -807 168 -1201 -47 -109 -120 -228 -180 -292 l-50 -53 -325 375 c-179 206
-335 387 -348 403 l-23 30 348 400 c191 220 351 401 354 401 3 0 28 -28 56
-63z m-579 -174 c-52 -60 -147 -169 -212 -243 -64 -74 -120 -135 -125 -135 -7
0 -421 472 -421 480 0 3 192 5 426 5 l426 0 -94 -107z m-119 -995 l210 -243
-214 -3 c-118 -1 -311 -1 -428 0 l-214 3 211 243 c116 133 213 242 217 242 4
0 102 -109 218 -242z m537 -477 c-13 -21 -163 -115 -248 -156 -407 -195 -893
-139 -1248 145 l-25 20 763 0 c420 0 761 -4 758 -9z"/>
</g>
</svg>
